<svg width="32" height="32" viewBox="0 0 32 32" fill="none" xmlns="http://www.w3.org/2000/svg">
  <path d="M7 5.5C7 4.67157 7.67157 4 8.5 4H15.5C16.3284 4 17 4.67157 17 5.5V12.5C17 13.3284 16.3284 14 15.5 14H8.5C7.67157 14 7 13.3284 7 12.5V5.5Z" fill="#F26207"/>
  <path d="M7 19.5C7 18.6716 7.67157 18 8.5 18H15.5C16.3284 18 17 18.6716 17 19.5V26.5C17 27.3284 16.3284 28 15.5 28H8.5C7.67157 28 7 27.3284 7 26.5V19.5Z" fill="#F26207"/>
  <path d="M19.5 4C18.6716 4 18 4.67157 18 5.5V12.5C18 13.3284 18.6716 14 19.5 14H26.5C27.3284 14 28 13.3284 28 12.5V5.5C28 4.67157 27.3284 4 26.5 4H19.5Z" fill="#F26207"/>
  <circle cx="23" cy="23" r="5" fill="#F26207"/>
</svg>
